<svg  xmlns="http://www.w3.org/2000/svg" width="90" height="40" >
 <!-- Created with Method Draw - http://github.com/duopixel/Method-Draw/ -->
<path d="M19.87 0L11.04 0L-0.24-37.01L7.52-37.01L12.40-18.99Q12.94-17.04 13.87-13.28L13.87-13.28Q14.84-9.18 15.48-7.03L15.48-7.03L15.77-7.03Q16.36-9.08 17.29-12.89L17.29-12.89Q18.31-16.89 18.90-18.99L18.90-18.99L23.68-37.01L31.20-37.01L19.87 0ZM58.64 0L35.40 0L35.40-37.01L58.11-37.01L58.11-30.86L42.82-30.86L42.82-22.31L55.81-22.31L55.81-16.11L42.82-16.11L42.82-6.20L58.64-6.20L58.64 0ZM77.15 0.68L77.15 0.68Q70.07 0.68 64.70-3.76L64.70-3.76Q64.16-4.25 63.67-4.69L63.67-4.69L67.92-9.81Q71.92-6.10 76.56-5.76L76.56-5.76Q77.00-5.71 77.34-5.71L77.34-5.71Q82.18-5.71 83.06-8.79L83.06-8.79Q83.20-9.33 83.20-9.96L83.20-9.96Q83.20-12.16 80.86-13.48L80.86-13.48Q80.03-13.92 77.69-14.94L77.69-14.94L72.71-17.04Q65.28-20.21 65.23-27.00L65.23-27.00Q65.23-31.98 69.38-35.11L69.38-35.11Q72.95-37.70 78.03-37.70L78.03-37.70Q84.13-37.70 88.67-33.84L88.67-33.84Q89.16-33.40 89.60-32.96L89.60-32.96L85.89-28.32Q82.23-31.35 78.03-31.35L78.03-31.35Q73.97-31.35 72.90-28.86L72.90-28.86Q72.66-28.17 72.66-27.44L72.66-27.44Q72.66-25.29 75.44-23.88L75.44-23.88Q76.27-23.49 78.47-22.61L78.47-22.61L83.30-20.56Q89.40-18.02 90.53-13.09L90.53-13.09Q90.77-11.87 90.77-10.50L90.77-10.50Q90.77-5.37 86.62-2.20L86.62-2.20Q82.86 0.68 77.15 0.68Z" transform="translate(0.244140625, 37.6953125)" fill="#fff"></path>
</svg>

