<?xml version="1.0" encoding="UTF-8"?>
<svg width="31px" height="18px" viewBox="0 0 31 18" version="1.1" xmlns="http://www.w3.org/2000/svg" xmlns:xlink="http://www.w3.org/1999/xlink">
    <!-- Generator: Sketch 47 (45396) - http://www.bohemiancoding.com/sketch -->
    <title>Mark</title>
    <desc>Created with Sketch.</desc>
    <defs>
        <path d="M12.7791176,8.34638827 L4.52384784,14.4187884 C3.47370198,15.1912533 1.99618406,14.9661483 1.22371919,13.9160025 C0.925533762,13.5106272 0.764705882,13.0205643 0.764705882,12.5173311 L0.764705882,4.17544543 C0.764705882,2.87179352 1.82152456,1.81497484 3.12517647,1.81497484 C3.62840971,1.81497484 4.11847252,1.97580272 4.52384784,2.27398815 L12.7791176,8.34638827 Z M15.7647059,8.34638827 L24.0199756,2.27398815 C24.4253509,1.97580272 24.9154137,1.81497484 25.418647,1.81497484 C26.7222989,1.81497484 27.7791176,2.87179352 27.7791176,4.17544543 L27.7791176,12.5173311 C27.7791176,13.0205643 27.6182897,13.5106272 27.3201043,13.9160025 C26.5476394,14.9661483 25.0701215,15.1912533 24.0199756,14.4187884 L15.7647059,8.34638827 Z" id="path-1"></path>
    </defs>
    <g id="Dashboard" stroke="none" stroke-width="1" fill="none" fill-rule="evenodd">
        <g id="Artboard" transform="translate(-27.000000, -24.000000)">
            <g id="Top-Bar-">
                <g id="Mark" transform="translate(28.235294, 24.470588)">
                    <g id="Symbol">
                        <use fill="#FFFFFF" fill-rule="evenodd" xlink:href="#path-1"></use>
                        <path stroke="#C0C4CA" stroke-width="1.88235294" d="M14.367496,8.34638827 L5.0815318,15.1769452 C3.6126675,16.2574104 1.54602759,15.9425507 0.465562377,14.4736864 C0.0484832402,13.9066782 -0.176470588,13.2212156 -0.176470588,12.5173311 L-0.176470588,4.17544543 C-0.176470588,2.35199611 1.30172715,0.873798371 3.12517647,0.873798371 C3.82906093,0.873798371 4.51452358,1.0987522 5.0815318,1.51583134 L14.367496,8.34638827 Z M14.1763275,8.34638827 L23.4622917,1.51583134 C24.0292999,1.0987522 24.7147625,0.873798371 25.418647,0.873798371 C27.2420963,0.873798371 28.720294,2.35199611 28.720294,4.17544543 L28.720294,12.5173311 C28.720294,13.2212156 28.4953402,13.9066782 28.0782611,14.4736864 C26.9977959,15.9425507 24.931156,16.2574104 23.4622917,15.1769452 L14.1763275,8.34638827 Z"></path>
                    </g>
                </g>
            </g>
        </g>
    </g>
</svg>